<svg xmlns="http://www.w3.org/2000/svg" viewBox="0 0 600 800"><defs><linearGradient id="b" x2="0" y2="1"><stop stop-color="#29364b"/><stop offset="1" stop-color="#090d16"/></linearGradient><linearGradient id="s" x2="0" y2="1"><stop stop-color="#f0c9ae"/><stop offset="1" stop-color="#bd896f"/></linearGradient></defs><rect width="600" height="800" fill="url(#b)"/><circle cx="300" cy="190" r="180" fill="#7892b8" opacity=".18"/><path d="M80 800Q100 530 205 455Q300 405 395 455Q500 530 520 800" fill="#252b39" stroke="#66758e" stroke-width="5"/><path d="M210 490L390 490L430 700L170 700Z" fill="#3b4352"/><path d="M215 320Q300 245 385 320L370 455Q300 500 230 455Z" fill="url(#s)"/><path d="M215 330Q225 220 305 210Q390 220 390 335L360 315L345 270L275 285L235 350Z" fill="#201d27"/><path d="M250 360Q270 345 290 360M310 360Q330 345 350 360" stroke="#382d38" stroke-width="8" fill="none"/><path d="M275 400Q300 412 325 400" stroke="#704b4c" stroke-width="5" fill="none"/><path d="M405 535L500 420" stroke="#b9a27a" stroke-width="10"/><path d="M470 380Q530 430 480 490" fill="none" stroke="#b9a27a" stroke-width="8"/><circle cx="490" cy="425" r="16" fill="#d6b36b"/></svg>